<?xml version="1.0" encoding="UTF-8"?>
<svg width="18px" height="18px" viewBox="0 0 18 18" version="1.1" xmlns="http://www.w3.org/2000/svg" xmlns:xlink="http://www.w3.org/1999/xlink">
    <title>icon-退出</title>
    <g id="监控（产品）" stroke="none" stroke-width="1" fill="none" fill-rule="evenodd">
        <g id="监控（9）" transform="translate(-910.000000, -156.000000)">
            <g id="Repeat-Group" transform="translate(520.000000, 156.000000)">
                <g id="icon-退出" transform="translate(390.000000, 0.000000)">
                    <rect id="range" fill="#D8D8D8" opacity="0" x="-1.13686838e-13" y="0" width="18" height="18"></rect>
                    <path d="M13.1682053,2.43572316 C15.8403587,3.90957779 17.5,6.68612418 17.5,9.68484355 C17.5,14.2713242 13.6867729,18 9,18 C4.31354857,18 0.5,14.2699128 0.5,9.6831185 C0.5,6.68630916 2.15947169,3.90969759 4.83048041,2.43547573 C5.29746178,2.17931917 5.8887418,2.34018915 6.15347471,2.79766246 C6.41965537,3.25763755 6.25276557,3.841647 5.78350389,4.10129263 C3.72495369,5.23793337 2.44639017,7.37660273 2.44639017,9.6831185 C2.44639017,13.2141034 5.38576442,16.0877857 9,16.0877857 C12.615382,16.0877857 15.5536098,13.2147077 15.5536098,9.6831185 C15.5536098,7.37622046 14.2747105,5.23777972 12.2145613,4.10119831 C11.7701593,3.8553076 11.5969849,3.31821346 11.8063124,2.87125548 L11.8443513,2.79837376 C12.1075623,2.33957517 12.6997353,2.17777372 13.1682053,2.43572316 Z M9,-5.32907052e-15 C9.5105866,-5.32907052e-15 9.93016331,0.385310096 9.97084451,0.877538877 L9.97407717,0.956107145 L9.97407717,9.0517514 C9.97407717,9.58092215 9.53745958,10.0078585 9,10.0078585 C8.4894134,10.0078585 8.06983669,9.62254845 8.02915549,9.13031967 L8.02592283,9.0517514 L8.02592283,0.956107145 C8.02592283,0.426936394 8.46254042,-5.32907052e-15 9,-5.32907052e-15 Z" id="形状结合" fill="#5CBFE5" fill-rule="nonzero"></path>
                </g>
            </g>
        </g>
    </g>
</svg>