<?xml version="1.0" encoding="UTF-8"?>
<svg width="1920px" height="120px" viewBox="0 0 1920 120" version="1.1" xmlns="http://www.w3.org/2000/svg" xmlns:xlink="http://www.w3.org/1999/xlink">
    <title>header</title>
    <defs>
        <linearGradient x1="100%" y1="50%" x2="0%" y2="49.9999999%" id="linearGradient-1">
            <stop stop-color="#FFFFFF" stop-opacity="0" offset="0%"></stop>
            <stop stop-color="#FFFFFF" stop-opacity="0.147754589" offset="32.9217657%"></stop>
            <stop stop-color="#FFFFFF" stop-opacity="0.322033435" offset="49.1735027%"></stop>
            <stop stop-color="#FFFFFF" stop-opacity="0.102901005" offset="65.5730988%"></stop>
            <stop stop-color="#FFFFFF" stop-opacity="0.0618170892" offset="100%"></stop>
        </linearGradient>
        <linearGradient x1="100%" y1="50%" x2="0%" y2="49.9999999%" id="linearGradient-2">
            <stop stop-color="#FFFFFF" stop-opacity="0" offset="0%"></stop>
            <stop stop-color="#FFFFFF" stop-opacity="0.147754589" offset="32.9217657%"></stop>
            <stop stop-color="#FFFFFF" stop-opacity="0.322033435" offset="49.1735027%"></stop>
            <stop stop-color="#FFFFFF" stop-opacity="0.102901005" offset="65.5730988%"></stop>
            <stop stop-color="#FFFFFF" stop-opacity="0.0618170892" offset="100%"></stop>
        </linearGradient>
        <linearGradient x1="100%" y1="50%" x2="0%" y2="49.9999999%" id="linearGradient-3">
            <stop stop-color="#FFFFFF" stop-opacity="0" offset="0%"></stop>
            <stop stop-color="#FFFFFF" stop-opacity="0.147754589" offset="32.9217657%"></stop>
            <stop stop-color="#FFFFFF" stop-opacity="0.322033435" offset="49.1735027%"></stop>
            <stop stop-color="#FFFFFF" stop-opacity="0.102901005" offset="65.5730988%"></stop>
            <stop stop-color="#FFFFFF" stop-opacity="0.0618170892" offset="100%"></stop>
        </linearGradient>
        <linearGradient x1="100%" y1="50%" x2="0%" y2="49.9999999%" id="linearGradient-4">
            <stop stop-color="#FFFFFF" stop-opacity="0" offset="0%"></stop>
            <stop stop-color="#FFFFFF" stop-opacity="0.147754589" offset="32.9217657%"></stop>
            <stop stop-color="#FFFFFF" stop-opacity="0.322033435" offset="49.1735027%"></stop>
            <stop stop-color="#FFFFFF" stop-opacity="0.102901005" offset="65.5730988%"></stop>
            <stop stop-color="#FFFFFF" stop-opacity="0.0618170892" offset="100%"></stop>
        </linearGradient>
        <linearGradient x1="100%" y1="50%" x2="0%" y2="49.9999999%" id="linearGradient-5">
            <stop stop-color="#FFFFFF" stop-opacity="0" offset="0%"></stop>
            <stop stop-color="#FFFFFF" stop-opacity="0.147754589" offset="32.9217657%"></stop>
            <stop stop-color="#FFFFFF" stop-opacity="0.322033435" offset="49.1735027%"></stop>
            <stop stop-color="#FFFFFF" stop-opacity="0.102901005" offset="65.5730988%"></stop>
            <stop stop-color="#FFFFFF" stop-opacity="0.0618170892" offset="100%"></stop>
        </linearGradient>
        <linearGradient x1="100%" y1="50%" x2="0%" y2="49.9999999%" id="linearGradient-6">
            <stop stop-color="#FFFFFF" stop-opacity="0" offset="0%"></stop>
            <stop stop-color="#FFFFFF" stop-opacity="0.147754589" offset="32.9217657%"></stop>
            <stop stop-color="#FFFFFF" stop-opacity="0.322033435" offset="49.1735027%"></stop>
            <stop stop-color="#FFFFFF" stop-opacity="0.102901005" offset="65.5730988%"></stop>
            <stop stop-color="#FFFFFF" stop-opacity="0.0618170892" offset="100%"></stop>
        </linearGradient>
        <radialGradient cx="50%" cy="50%" fx="50%" fy="50%" r="71.8626991%" id="radialGradient-7">
            <stop stop-color="#64CEF7" offset="0%"></stop>
            <stop stop-color="#64CEF7" offset="46.6124792%"></stop>
            <stop stop-color="#000000" stop-opacity="0" offset="100%"></stop>
        </radialGradient>
        <polygon id="path-8" points="0 75.1940133 62.4886203 75.1940133 62.4886203 -1.33920652e-15 0 -1.33920652e-15"></polygon>
        <polygon id="path-10" points="0 75.1940133 62.4886203 75.1940133 62.4886203 -1.33920652e-15 0 -1.33920652e-15"></polygon>
        <polygon id="path-12" points="0 75.1940133 62.4886203 75.1940133 62.4886203 -1.33920652e-15 0 -1.33920652e-15"></polygon>
        <polygon id="path-14" points="0 75.1940133 62.4886203 75.1940133 62.4886203 -1.33920652e-15 0 -1.33920652e-15"></polygon>
        <polygon id="path-16" points="0 75.1940133 62.4886203 75.1940133 62.4886203 -1.33920652e-15 0 -1.33920652e-15"></polygon>
        <polygon id="path-18" points="0 75.1940133 62.4886203 75.1940133 62.4886203 -1.33920652e-15 0 -1.33920652e-15"></polygon>
        <polygon id="path-20" points="0 75.1940133 62.4886203 75.1940133 62.4886203 -1.33920652e-15 0 -1.33920652e-15"></polygon>
        <polygon id="path-22" points="0 75.1940133 62.4886203 75.1940133 62.4886203 -1.33920652e-15 0 -1.33920652e-15"></polygon>
        <polygon id="path-24" points="0 75.1940133 62.4886203 75.1940133 62.4886203 -1.33920652e-15 0 -1.33920652e-15"></polygon>
        <path d="M10.656,40.336 L10.656,26.096 L12.384,26.096 L12.384,24.528 L10.656,24.528 L10.656,16.08 L12.384,16.08 L12.384,14.48 L10.656,14.48 L10.656,13.264 L7.36,13.264 L7.36,14.48 L0.96,14.48 L0.96,16.08 L7.36,16.08 L7.36,40.336 L10.656,40.336 Z M30.656,40.112 L30.656,18.512 L25.76,18.512 L25.76,15.088 L31.04,15.088 L31.04,13.488 L13.536,13.488 L13.536,15.088 L18.688,15.088 L18.688,18.512 L13.888,18.512 L13.888,40.112 L30.656,40.112 Z M23.2,18.512 L21.248,18.512 L21.248,15.088 L23.2,15.088 L23.2,18.512 Z M4.512,40.336 L4.864,17.264 L2.112,17.264 L1.792,40.336 L4.512,40.336 Z M27.68,38.512 L16.832,38.512 L16.832,34.128 L21.248,34.128 L21.248,20.08 L23.2,20.08 L23.2,34.128 L27.68,34.128 L27.68,38.512 Z M27.68,32.528 L25.76,32.528 L25.76,20.08 L27.68,20.08 L27.68,32.528 Z M18.688,32.528 L16.832,32.528 L16.832,20.08 L18.688,20.08 L18.688,32.528 Z M37.28,25.392 L37.28,18.192 L46.08,18.192 L46.08,19.696 L39.488,19.696 L39.488,21.2 L46.08,21.2 L46.08,22.704 L39.488,22.704 L39.488,24.176 L46.08,24.176 L46.08,25.392 L49.92,25.392 L49.92,18.192 L58.72,18.192 L58.72,19.696 L52,19.696 L52,21.2 L58.72,21.2 L58.72,22.704 L52,22.704 L52,24.176 L58.72,24.176 L58.72,25.392 L62.56,25.392 L62.56,16.72 L49.92,16.72 L49.92,14.928 L63.04,14.928 L63.04,13.456 L32.96,13.456 L32.96,14.928 L46.08,14.928 L46.08,16.72 L33.44,16.72 L33.44,25.392 L37.28,25.392 Z M37.28,40.336 L37.28,38.192 L47.296,38.192 L47.296,36.688 L37.28,36.688 L37.28,35.024 L47.296,35.024 L47.296,33.52 L37.28,33.52 L37.28,31.76 L46.784,31.76 L46.784,26.512 L33.44,26.512 L33.44,40.336 L37.28,40.336 Z M62.56,31.28 L62.56,26.512 L48.704,26.512 L48.704,28.016 L58.72,28.016 L58.72,29.808 L48.704,29.808 L48.704,31.28 L62.56,31.28 Z M42.944,30.256 L37.28,30.256 L37.28,28.016 L42.944,28.016 L42.944,30.256 Z M54.176,40.144 L56,38.832 L57.888,40.144 L63.04,40.144 L63.04,38.672 L60.576,38.672 L58.4,37.136 L62.432,34.256 L62.432,32.784 L48.992,32.784 L48.992,34.256 L57.632,34.256 L55.68,35.664 L51.552,35.664 L53.632,37.136 L51.52,38.672 L48.992,38.672 L48.992,40.144 L54.176,40.144 Z M71.168,20.08 L72.896,15.088 L87.072,15.088 L88.832,20.08 L95.04,20.08 L95.04,18.512 L92.64,18.512 L90.912,13.488 L69.088,13.488 L67.328,18.512 L64.96,18.512 L64.96,20.08 L71.168,20.08 Z M94.528,40.112 L94.528,38.512 L82.4,38.512 L82.4,32.112 L94.528,32.112 L94.528,30.544 L82.4,30.544 L82.4,24.112 L94.528,24.112 L94.528,22.512 L65.472,22.512 L65.472,24.112 L78.56,24.112 L78.56,30.544 L65.472,30.544 L65.472,32.112 L78.56,32.112 L78.56,38.512 L65.472,38.512 L65.472,40.112 L94.528,40.112 Z M127.04,40.112 L127.04,38.512 L121.6,38.512 L121.44,34.256 L126.624,33.264 L126.624,18.288 L123.392,18.288 L123.392,32.208 L121.376,32.592 L120.736,16.08 L126.592,16.08 L126.592,13.264 L123.2,13.264 L123.2,14.48 L120.672,14.48 L120.64,13.264 L117.248,13.264 L117.28,14.48 L105.984,14.48 L105.984,16.08 L117.344,16.08 L118.016,33.2 L116.672,33.456 L116.672,35.12 L118.08,34.864 L118.272,40.112 L127.04,40.112 Z M104.896,40.112 L104.896,38.512 L102.848,38.512 L102.848,16.08 L104.896,16.08 L104.896,14.48 L102.848,14.48 L102.848,13.264 L99.072,13.264 L99.072,14.48 L96.96,14.48 L96.96,16.08 L99.072,16.08 L99.072,38.512 L96.96,38.512 L96.96,40.112 L104.896,40.112 Z M115.392,36.144 L115.392,18.512 L106.4,18.512 L106.4,36.144 L115.392,36.144 Z M112.16,34.544 L109.632,34.544 L109.632,20.08 L112.16,20.08 L112.16,34.544 Z M115.808,40.112 L115.808,38.512 L105.984,38.512 L105.984,40.112 L115.808,40.112 Z M133.984,40.112 L134.368,22.096 L138.272,22.096 L138.272,38.512 L136.192,38.512 L136.192,40.112 L141.92,40.112 L141.92,20.496 L134.4,20.496 L134.496,16.08 L142.4,16.08 L142.4,14.48 L137.76,14.48 L137.76,13.264 L133.792,13.264 L133.792,14.48 L128.96,14.48 L128.96,16.08 L130.784,16.08 L130.304,38.512 L128.96,38.512 L128.96,40.112 L133.984,40.112 Z M159.04,16.08 L159.04,14.48 L148.512,14.48 L148.512,13.264 L144.672,13.264 L144.672,16.08 L159.04,16.08 Z M151.424,40.112 L151.424,38.512 L148.448,38.512 L148.448,21.104 L158.56,21.104 L158.56,18.288 L154.72,18.288 L154.72,19.504 L144.672,19.504 L144.672,40.112 L151.424,40.112 Z M159.04,40.112 L159.04,38.512 L156.864,38.512 L155.68,27.12 L159.04,27.12 L159.04,25.52 L155.52,25.52 L155.264,22.8 L151.488,22.8 L153.28,40.112 L159.04,40.112 Z M172.448,40.112 L172.8,21.104 L175.84,21.104 L175.84,38.512 L173.888,38.512 L173.888,40.112 L179.264,40.112 L179.264,19.504 L172.832,19.504 L172.896,16.08 L180,16.08 L180,14.48 L175.424,14.48 L175.424,13.264 L171.744,13.264 L171.744,14.48 L167.776,14.48 L167.776,16.08 L169.568,16.08 L169.152,38.512 L167.776,38.512 L167.776,40.112 L172.448,40.112 Z M191.04,16.08 L191.04,14.48 L184.96,14.48 L184.96,13.264 L181.248,13.264 L181.248,16.08 L191.04,16.08 Z M166.976,15.088 L166.976,13.488 L160.96,13.488 L160.96,15.088 L166.976,15.088 Z M189.536,40.112 L189.536,29.104 L191.04,29.104 L191.04,27.536 L188.064,27.536 L190.048,20.08 L190.048,18.512 L181.312,18.512 L181.312,20.08 L186.208,20.08 L184.224,27.536 L180.8,27.536 L180.8,29.104 L185.696,29.104 L185.696,38.512 L181.024,38.512 L181.024,40.112 L189.536,40.112 Z M166.976,20.592 L166.976,18.992 L160.96,18.992 L160.96,20.592 L166.976,20.592 Z M165.024,40.336 L166.112,24.304 L162.784,24.304 L161.728,40.336 L165.024,40.336 Z" id="path-26"></path>
        <filter x="-2.4%" y="-16.6%" width="104.7%" height="133.2%" filterUnits="objectBoundingBox" id="filter-27">
            <feOffset dx="0" dy="0" in="SourceAlpha" result="shadowOffsetOuter1"></feOffset>
            <feGaussianBlur stdDeviation="1.5" in="shadowOffsetOuter1" result="shadowBlurOuter1"></feGaussianBlur>
            <feColorMatrix values="0 0 0 0 0   0 0 0 0 0.488472465   0 0 0 0 1  0 0 0 1 0" type="matrix" in="shadowBlurOuter1"></feColorMatrix>
        </filter>
        <linearGradient x1="50%" y1="0%" x2="50%" y2="100%" id="linearGradient-28">
            <stop stop-color="#FFFFFF" offset="0%"></stop>
            <stop stop-color="#EFEFEF" offset="63.8183594%"></stop>
            <stop stop-color="#D8D8D8" offset="100%"></stop>
        </linearGradient>
        <path d="M210.576,36.224 L213.456,24.672 L214.864,24.672 L213.552,33.888 L211.632,36.224 L214.896,36.224 C215.578667,36.224 216.186667,36.0266667 216.72,35.632 C217.253333,35.2373333 217.562667,34.7306667 217.648,34.112 L217.648,34.112 L219.408,21.696 L214.192,21.696 L214.864,19.104 L219.824,19.104 L220.24,16.192 L217.456,16.192 L217.872,13.28 L211.792,13.28 L212.976,14.496 L212.72,16.192 L209.264,16.192 L208.848,19.104 L210.832,19.104 L206.512,36.224 L210.576,36.224 Z M224.976,19.04 L225.392,18.144 L234.48,18.144 L234.896,15.136 L226.8,15.136 L227.664,13.28 L222.992,13.28 L220.432,19.04 L224.976,19.04 Z M233.104,36.288 L230.896,28.192 L232.816,27.552 L233.296,24.224 L230.096,25.28 L229.296,22.4 L233.584,22.016 L233.968,19.264 L221.36,20.384 L219.12,36.288 L225.616,35.264 L226,32.48 L223.888,32.864 L225.04,24.576 L228.208,36.288 L233.104,36.288 Z M246.808,36.256 L249.304,24.48 L250.168,24.48 L248.696,35.104 L247.48,36.256 L250.584,36.256 C251.181333,36.256 251.682667,36.048 252.088,35.632 C252.493333,35.216 252.738667,34.6986667 252.824,34.08 L252.824,34.08 L254.584,21.504 L249.944,21.504 L250.52,18.72 L254.84,18.72 L255.224,15.808 L252.376,15.808 L252.728,13.312 L247.256,13.312 L248.152,14.432 L247.928,15.808 L245.496,15.808 L245.112,18.72 L246.456,18.72 L242.68,36.256 L246.808,36.256 Z M259.736,19.488 L260.184,18.208 L265.336,18.208 L265.72,15.52 L261.176,15.52 L262.008,13.312 L257.464,13.312 L255.128,19.488 L259.736,19.488 Z M244.472,19.328 L244.312,13.856 L240.152,13.856 L240.312,19.328 L244.472,19.328 Z M258.52,36.256 C259.096,36.256 259.597333,36.0586667 260.024,35.664 C260.450667,35.2693333 260.706667,34.784 260.792,34.208 L260.792,34.208 L261.464,28.864 L264.28,28.768 L264.664,26.016 L261.816,26.112 L261.912,25.344 L263.96,23.264 L264.408,20.096 L255.992,20.096 L255.608,22.688 L259.928,22.688 L257.912,24.896 L257.72,26.272 L254.712,26.368 L254.328,29.12 L257.368,29.024 L256.824,33.376 L253.528,36.256 L258.52,36.256 Z M243.544,26.016 L243.384,20.544 L239.224,20.544 L239.384,26.016 L243.544,26.016 Z M240.728,36.256 L243.352,27.232 L239.192,27.232 L236.568,36.256 L240.728,36.256 Z M273.536,24.832 L275.456,22.528 L276.8,24.8 L282.272,24.8 L280.256,21.344 L282.368,21.344 L282.784,18.336 L278.496,18.336 L278.592,17.696 L282.816,17.696 L283.296,14.432 L274.784,14.432 L275.584,13.248 L270.08,13.248 L270.912,13.696 L268.192,17.856 L272.512,17.856 L272.608,17.696 L273.536,17.696 L273.44,18.336 L268.192,18.336 L267.776,21.344 L271.072,21.344 L267.68,24.832 L273.536,24.832 Z M293.984,24.704 L295.488,14.08 L283.968,14.08 L282.464,24.704 L293.984,24.704 Z M289.92,21.728 L287.712,21.728 L288.32,17.216 L290.528,17.216 L289.92,21.728 Z M291.008,35.904 L292.48,25.472 L269.792,25.472 L268.32,35.904 L291.008,35.904 Z M286.56,29.504 L274.816,29.504 L275.008,28.224 L286.752,28.224 L286.56,29.504 Z M286.048,33.12 L274.304,33.12 L274.464,31.968 L286.208,31.968 L286.048,33.12 Z M325.032,24.192 L325.608,19.936 L324.232,21.152 L319.688,21.152 L319.976,19.104 L325.864,18.112 L326.312,15.072 L320.392,16.064 L320.808,13.248 L315.336,13.248 L313.8,24.192 L325.032,24.192 Z M313.384,20.544 L312.936,15.072 L308.68,15.072 L308.84,17.312 L306.024,17.472 L308.328,13.248 L301.64,13.248 L302.376,14.112 L300.392,17.824 L300.008,20.544 L309.064,20 L309.128,20.544 L313.384,20.544 Z M303.24,36.288 L303.816,32.096 L306.28,32.096 L305.864,35.136 L304.456,36.288 L308.968,36.288 C309.586667,36.288 310.130667,36.0906667 310.6,35.696 C311.069333,35.3013333 311.357333,34.7946667 311.464,34.176 L311.464,34.176 L313.288,21.152 L299.912,21.152 L297.768,36.288 L303.24,36.288 Z M307.208,25.408 L304.776,25.408 L305,23.872 L307.432,23.872 L307.208,25.408 Z M323.304,36.288 L323.912,32.064 L322.536,33.28 L322.6,33.312 L317.992,33.312 L318.28,31.264 L324.168,30.272 L324.584,27.232 L318.696,28.224 L319.08,25.408 L313.608,25.408 L312.072,36.288 L323.304,36.288 Z M306.664,29.344 L304.2,29.344 L304.392,28.16 L306.824,28.16 L306.664,29.344 Z M341.328,24.8 L342.96,13.216 L336.944,13.216 L337.712,14.176 L336.208,24.8 L341.328,24.8 Z M347.696,24.16 L349.04,19.616 L356.368,19.616 L356.944,15.648 L350.192,15.648 L350.896,13.312 L345.456,13.312 L342.512,24.16 L347.696,24.16 Z M335.408,24.16 L336.784,14.464 L331.504,14.464 L332.272,15.392 L331.024,24.16 L335.408,24.16 Z M355.184,24.16 L354.544,20.896 L349.456,20.896 L350.096,24.16 L355.184,24.16 Z M354.704,35.68 L355.088,32.8 L353.808,32.8 L354.8,25.76 L330.672,25.76 L329.68,32.8 L328.4,32.8 L328.016,35.68 L354.704,35.68 Z M336.592,32.8 L335.12,32.8 L335.696,28.832 L337.168,28.832 L336.592,32.8 Z M342.64,32.8 L341.168,32.8 L341.744,28.832 L343.216,28.832 L342.64,32.8 Z M348.688,32.8 L347.216,32.8 L347.792,28.832 L349.264,28.832 L348.688,32.8 Z M374.808,20.128 L375.128,17.888 L382.264,17.888 L381.944,20.128 L387.032,20.128 L387.704,15.52 L381.944,15.52 L382.264,13.28 L374.84,13.28 L376.056,14.496 L375.896,15.52 L370.232,15.52 L369.56,20.128 L374.808,20.128 Z M363.128,36.256 C363.725333,36.256 364.264,36.0586667 364.744,35.664 C365.224,35.2693333 365.506667,34.7626667 365.592,34.144 L365.592,34.144 L366.584,27.008 L367.416,26.752 L367.896,23.424 L367.032,23.68 L367.512,20.224 L368.632,20.224 L369.048,17.376 L367.928,17.376 L368.504,13.312 L362.2,13.312 L363,14.24 L362.552,17.376 L360.888,17.376 L360.472,20.224 L362.168,20.224 L361.432,25.44 L359.64,25.984 L359.16,29.344 L360.952,28.8 L360.312,33.376 L358.168,36.256 L363.128,36.256 Z M374.648,24.832 L377.24,20.8 L371.736,20.8 L369.144,24.832 L374.648,24.832 Z M386.392,24.832 L384.888,20.8 L379.384,20.8 L380.888,24.832 L386.392,24.832 Z M384.92,35.712 L385.336,32.736 L379.576,32.736 L380.184,28.32 L385.144,28.32 L385.56,25.44 L369.752,25.44 L369.336,28.32 L374.2,28.32 L373.592,32.736 L368.184,32.736 L367.768,35.712 L384.92,35.712 Z M396,36.288 L404.32,23.584 L404.608,23.584 L409.376,36.288 L416.064,36.288 L411.264,23.584 L416.96,23.584 L417.376,20.544 L406.304,20.544 L410.688,13.856 L402.784,13.856 L403.488,14.656 L399.616,20.544 L392.448,20.544 L392.032,23.584 L397.632,23.584 L389.312,36.288 L396,36.288 Z M424.488,36.256 L428.04,20.672 L447.304,20.672 L448.264,13.856 L423.208,13.856 L424.168,15.008 L419.336,36.256 L424.488,36.256 Z M442.632,17.984 L428.712,17.984 L429.032,16.32 L442.856,16.32 L442.632,17.984 Z M432.712,36.256 L434.408,31.264 L437.96,31.264 L437.256,36.256 L442.92,36.256 L443.624,31.264 L446.056,31.264 L446.44,28.512 L444.008,28.512 L444.328,26.24 L446.184,26.24 L446.536,23.68 L444.872,23.68 L445.928,21.344 L440.456,21.344 L439.336,23.68 L436.168,23.68 L435.752,21.344 L430.248,21.344 L430.664,23.68 L428.68,23.68 L428.328,26.24 L430.408,26.24 L429.64,28.512 L427.368,28.512 L426.984,31.264 L428.712,31.264 L427.048,36.256 L432.712,36.256 Z M438.344,28.512 L435.336,28.512 L436.104,26.24 L438.664,26.24 L438.344,28.512 Z" id="path-29"></path>
        <filter x="-2.9%" y="-21.7%" width="105.8%" height="160.7%" filterUnits="objectBoundingBox" id="filter-30">
            <feOffset dx="0" dy="2" in="SourceAlpha" result="shadowOffsetOuter1"></feOffset>
            <feGaussianBlur stdDeviation="2" in="shadowOffsetOuter1" result="shadowBlurOuter1"></feGaussianBlur>
            <feColorMatrix values="0 0 0 0 0   0 0 0 0 0   0 0 0 0 0  0 0 0 0.5 0" type="matrix" in="shadowBlurOuter1"></feColorMatrix>
        </filter>
    </defs>
    <g id="监控（产品）" stroke="none" stroke-width="1" fill="none" fill-rule="evenodd">
        <g id="header">
            <g id="header_bg">
                <rect id="矩形" fill="#D8D8D8" fill-rule="nonzero" opacity="0" x="0" y="0" width="1920" height="120"></rect>
                <polygon id="矩形" stroke="#63B2F6" stroke-width="0.5" fill="url(#linearGradient-1)" fill-rule="nonzero" points="197.082031 22.25 197.082031 31.75 134.25 31.75 134.25 22.25"></polygon>
                <polygon id="矩形" stroke="#63B2F6" stroke-width="0.5" fill="url(#linearGradient-2)" fill-rule="nonzero" points="557.75 22.25 557.75 31.75 134.25 31.75 134.25 22.25"></polygon>
                <polygon id="矩形备份-2" stroke="#63B2F6" stroke-width="0.5" fill="url(#linearGradient-3)" fill-rule="nonzero" points="1448.75 22.25 1448.75 31.75 822.25 31.75 822.25 22.25"></polygon>
                <polygon id="矩形备份" stroke="#63B2F6" stroke-width="0.5" fill="url(#linearGradient-4)" fill-rule="nonzero" points="816.460938 22.25 816.460938 31.75 517.960938 31.75 517.960938 22.25"></polygon>
                <polygon id="矩形备份-3" stroke="#63B2F6" stroke-width="0.5" fill="url(#linearGradient-5)" fill-rule="nonzero" points="1547.75 22.25 1547.75 31.75 1426.25 31.75 1426.25 22.25"></polygon>
                <polygon id="矩形备份-4" stroke="#5CBFE5" stroke-width="0.5" fill="url(#linearGradient-6)" fill-rule="nonzero" points="1547.75 44.25 1547.75 44.75 1480.25 44.75 1480.25 44.25"></polygon>
                <line x1="1743.5" y1="22.5" x2="1743.5" y2="70.5" id="直线" stroke-opacity="0.7" stroke="#FFFFFF" opacity="0.7" stroke-linecap="square"></line>
            </g>
            <g id="header_logo" transform="translate(20.000000, 20.000000)">
                <rect id="矩形" stroke="url(#radialGradient-7)" stroke-width="2" x="4" y="4" width="86" height="86"></rect>
                <path d="M80.3539773,0 L94,0 L94,9.67050715 M94,82.5803451 L94,94 L80.6009943,94 M14.0699574,94 L0,94 L0,83.9990241 M0,10.2646833 L0,0 L14.1634233,0" id="形状" stroke="#5CBFE5"></path>
                <g id="编组" transform="translate(18.000000, 14.196992)">
                    <g transform="translate(0.000000, -0.000000)">
                        <g id="Fill-52-Clipped">
                            <mask id="mask-9" fill="white">
                                <use xlink:href="#path-8"></use>
                            </mask>
                            <g id="path-8"></g>
                            <path d="M38.1143667,49.5012726 C37.1036008,48.5677275 36.4968654,48.6419935 35.8412761,49.7798193 C37.615386,50.2037461 37.615386,50.2037461 38.1143667,49.5012726" id="Fill-52" fill="#FFFFFF" fill-rule="nonzero" mask="url(#mask-9)"></path>
                        </g>
                        <g id="Fill-53-Clipped">
                            <mask id="mask-11" fill="white">
                                <use xlink:href="#path-10"></use>
                            </mask>
                            <g id="path-8"></g>
                            <path d="M16.8265248,58.7727799 C16.2694314,59.3131289 15.6768794,59.5231224 14.6395196,59.162627 C15.0987079,58.9321464 15.4125162,58.7739618 15.9215435,58.5182662 C15.3374622,58.1561949 15.0604915,57.9846149 14.652718,57.7320711 C14.9681022,57.1544906 15.2791526,56.5402695 15.6333442,55.9524454 C15.8468835,55.5996327 16.180588,55.4534647 16.624411,55.4771037 C17.4805382,55.5216239 17.4901908,55.5805245 17.5683966,56.4573359 C17.6491634,57.3621202 17.5006314,58.1183725 16.8265248,58.7727799 L16.8265248,58.7727799 Z M14.013676,57.2657911 C13.6653941,57.4568733 13.3655723,57.192904 13.2044329,56.750854 C13.5607914,56.5483462 13.9120281,56.3482023 14.3371369,56.1064932 C14.4937455,56.6490091 14.3680646,57.070572 14.013676,57.2657911 L14.013676,57.2657911 Z M12.9323869,58.6979229 C12.3652469,58.2820728 12.5307202,57.7369959 12.6957995,56.9703031 C13.2268899,57.5126221 13.6305266,57.9251233 14.0613481,58.3655974 C13.7229158,58.9504667 13.3450851,58.9995177 12.9323869,58.6979229 L12.9323869,58.6979229 Z M11.0438246,59.9570958 C10.7209547,59.9884175 10.4055705,60.0687902 10.1041728,60.0317558 C9.88748156,60.0051618 9.56283875,59.8656915 9.50630204,59.7012032 C9.23031625,58.892748 8.82136086,58.0817319 9.20135843,57.0619044 C10.1256449,58.0214524 10.1256449,58.0214524 11.0438246,58.1496942 L11.0438246,59.9570958 Z M10.7495186,53.4664064 C10.8470296,53.4987131 10.9449346,53.5312167 11.0430366,53.5635234 L11.0430366,56.7845396 C10.4784576,56.8119215 9.97730991,56.8361515 9.32309948,56.8674733 C9.55968687,55.5042886 10.3492308,54.5709405 10.7495186,53.4664064 L10.7495186,53.4664064 Z M18.0622556,54.6656937 C17.411394,54.5961555 16.7402423,54.7161236 16.0263433,54.7533551 C15.9759133,53.8615723 16.0704695,52.8421387 14.9446602,52.4059984 C14.1941207,52.6936068 14.6714323,53.1721003 14.7858846,53.5436272 C15.1583965,54.7521732 14.9635714,55.224954 13.8145171,55.7083723 C13.520014,55.8322803 13.2272839,55.9605221 12.9250982,56.0625639 C12.8449225,56.0897488 12.734016,56.0271054 12.5988794,55.9975566 L12.5988794,55.0858776 C12.3689898,55.2371675 12.1995767,55.3490589 11.8901022,55.5525517 C12.0961559,54.4503814 11.993326,53.6141504 11.0558411,53.0944855 C12.4007055,51.2181367 14.6572489,50.8359722 16.3299079,49.6035902 C16.107307,49.0900321 15.7076102,49.0228578 15.3220969,49.1254907 C14.6444444,49.3061323 13.9496536,49.4889409 13.3291288,49.8023552 C11.3938794,50.7780566 9.62469423,52.0191062 7.90653001,53.3361947 C7.49855958,53.648624 7.09511996,54.0402441 6.34970223,53.943127 C6.48976355,53.2365167 6.62490006,52.5539394 6.76102153,51.8717561 C6.9095535,51.1296873 7.34175395,50.6976838 8.10549193,50.5792916 C8.3844326,50.5361504 8.64859887,50.397862 8.91985686,50.3027149 C9.064055,50.1906264 9.07607151,50.0826748 8.91690198,50.0141216 C8.37497699,49.8449054 7.31437206,49.7471974 7.22868054,49.48638 C7.26610902,49.2566873 7.28817212,49.0157661 7.34628476,48.7837095 C7.55194441,47.9577221 7.78537993,47.1382354 7.97409827,46.308899 C8.02728611,46.0748726 8.26111561,45.5360994 7.95459606,45.521325 C6.94245116,45.6669021 6.84001532,46.4054251 6.63356771,47.0139334 C6.41746748,47.6494296 6.30754595,48.3199904 6.11784265,48.9659271 C5.99925347,49.3689728 5.81959676,49.7538951 5.61807395,50.274742 C3.97516067,51.2707335 1.83129673,51.4052791 0.0764919936,52.7674788 C-0.393530918,53.031842 1.43179695,53.5450062 2.06709615,53.6695051 C2.67816534,53.7894733 3.34695318,53.6129684 4.01199817,53.5649024 C4.0112102,53.5635234 4.05277551,53.6281368 4.05395747,53.6933412 C4.05671535,53.8345844 4.05632137,53.9797675 4.02716655,54.116677 C3.65682159,55.8567073 3.04023663,57.4992266 2.13269449,59.0365522 C1.71507145,59.7435565 1.43455484,60.4962629 2.10491862,61.3581029 C3.18128291,60.6755256 3.27800598,59.2201487 4.51255484,58.5527398 C4.46961059,59.0731927 4.44675951,59.4506294 4.40677014,59.8264901 C4.23361417,61.4499012 4.0580943,63.0731152 3.87922556,64.6955414 C3.81894601,65.245543 3.75965142,65.787074 4.53678486,65.9058602 C5.21246742,65.4409591 5.40847446,64.752866 5.46619311,63.9802634 C5.62969647,61.7910913 5.80541334,59.6029042 5.98723695,57.414914 C6.03963683,56.7819787 6.10011337,56.1462855 6.21555068,55.5230029 C6.26164681,55.2714441 6.41017878,54.9739862 6.60795875,54.8262422 C7.77099951,53.9584924 8.96418006,53.131126 10.1421922,52.2840604 C10.4323614,52.0752489 10.6596902,52.1034187 10.8653498,52.4239247 C10.2785107,53.4171584 9.69758127,54.4210296 9.09636169,55.4124903 C8.28928547,56.7425803 8.01389065,58.1479213 8.33104777,59.6887927 C8.63126358,61.1481094 10.024785,61.8056687 11.305824,61.0639938 C11.8540527,60.7466397 12.4560602,60.5216749 13.0056679,60.2055027 C13.3271589,60.0205272 13.5932951,60.0372715 13.8956778,60.2019568 C14.6800999,60.6286415 15.5173159,60.66607 16.3462583,60.4119503 C17.31408,60.1154774 18.2389574,59.6377718 18.6636722,58.6861034 C19.0026954,57.9266992 19.1616679,57.0650562 19.2723774,56.2317801 C19.4155906,55.1546278 19.1222695,54.7793581 18.0622556,54.6656937 L18.0622556,54.6656937 Z" id="Fill-53" fill="#FFFFFF" fill-rule="nonzero" mask="url(#mask-11)"></path>
                        </g>
                        <g id="Fill-54-Clipped">
                            <mask id="mask-13" fill="white">
                                <use xlink:href="#path-12"></use>
                            </mask>
                            <g id="path-8"></g>
                            <path d="M57.1356188,59.0694301 C57.0209694,59.0006799 56.9354749,58.6413665 57.0083619,58.5472043 C57.3136995,58.1473106 57.648192,58.2688546 57.9885941,58.6084689 C57.7589015,58.9207012 57.6277048,59.3649181 57.1356188,59.0694301 M61.881944,56.0004918 C61.1619383,56.1608433 60.4921655,56.2550054 59.8612001,56.4659839 C59.1681822,56.6980404 58.6954014,56.5536453 58.3272234,55.7920742 C58.4964395,55.550956 58.6881127,55.2649236 58.8931814,54.9889378 C59.1681822,54.6185929 59.4780506,54.27169 59.7292154,53.8863736 C60.0489335,53.3964545 59.9323142,53.1216507 59.3791607,52.9427819 C58.8403875,52.768838 58.3445587,52.7891282 57.8828094,53.1840971 C57.648192,53.385226 57.400376,53.6472253 56.7839881,53.5623218 C57.9824874,52.4595606 59.0324547,51.4935118 60.0820281,50.527463 C60.061344,50.4579249 60.0400688,50.3883867 60.0189907,50.3188485 C59.4248628,50.3844468 58.8305379,50.4498482 58.0620722,50.5343577 C58.3429827,50.03518 58.5703115,49.6863072 58.7414976,49.3118254 C58.9343527,48.8902625 59.5018867,48.435408 58.9993601,47.9904031 C58.5279582,47.573174 58.1024555,48.0806254 57.7104414,48.337306 C57.81859,49.666608 57.0274702,50.5666644 56.3238147,51.6788813 C55.5269821,51.1209999 54.8249026,50.6293079 54.1226261,50.1376159 C54.1427193,50.0710326 54.1626155,50.0046463 54.1827087,49.938063 C53.6886528,50.0093741 53.1942028,50.0806852 52.6560207,50.158694 C52.7675182,50.7636564 52.8478909,51.2135862 52.9337794,51.6625309 C53.0876302,52.4650763 52.91999,52.9705578 52.1615708,53.1212567 C51.1657762,53.3188397 50.7633216,53.999053 50.3713075,54.7677158 C49.4505669,56.5701926 48.4961406,58.3498184 47.1414266,59.8808402 C47.0027443,60.0374488 46.9154768,60.3351037 46.9554662,60.5368235 C47.1278342,61.3984665 47.9985388,61.9390126 48.9951214,61.7952084 C49.0928294,61.1947768 49.2321027,60.5734641 49.2874575,59.9452566 C49.4298827,58.3429236 49.8061374,56.7943695 50.3748533,55.2997912 C50.8826987,53.9632005 51.0934802,53.9031179 52.6459741,54.4476038 C52.450558,54.8906388 52.32862,55.2995942 52.105822,55.6433453 C51.6452547,56.3548804 51.1338635,57.0335178 50.6376407,57.7220049 C50.4337539,58.0056733 50.1485095,58.2625509 50.4193735,58.6933724 C51.4858882,58.6555499 51.8668707,57.5718969 52.7497889,57.0632636 C52.9387042,57.8774315 53.1680029,58.5714344 52.3666394,59.0619444 C52.4929113,59.3623572 52.551024,59.6180529 52.6940402,59.8099231 C52.8469059,60.0138098 53.116982,60.3236782 53.2700448,60.2901896 C53.5239674,60.2340468 53.7920736,59.9779572 53.9309529,59.7356571 C54.0611646,59.5073433 54.051512,59.1888073 54.0698323,58.9080937 C54.1783749,57.2102196 54.2849475,55.5115576 54.3732,53.8125016 C54.3950661,53.3887718 54.5262627,53.0688568 54.8983806,52.8385732 C55.2565121,52.6167602 55.5908075,52.3571247 55.9302247,52.1179764 C56.6681568,52.9510556 56.6823402,53.0737816 56.0578755,53.8637195 C55.751356,54.2521878 55.4269102,54.6185929 55.554364,55.2607868 L56.9120329,55.2607868 C56.7489235,55.6167513 56.6346681,55.8655522 56.5277015,56.0976088 C57.1186775,57.1081778 57.1094188,57.126498 56.09688,57.6849704 C55.7929213,57.8522166 55.5068889,58.0519665 55.1790942,58.2582171 C55.3425976,59.1827005 56.0202501,59.7157609 56.5858141,60.3701683 C57.0637167,60.3325428 57.5784568,60.3699713 58.0474947,60.2399566 C59.2367354,59.9111769 59.8822782,59.6702557 59.690802,58.2458066 C59.6299315,57.7946949 59.8846421,57.5852924 60.2516382,57.4767498 C60.5211233,57.397165 60.8122775,57.3920433 61.0851114,57.3219141 C61.5145539,57.2108106 61.9376928,57.0731132 62.4886794,56.9096098 C62.2339687,56.5278393 62.0704654,56.2827813 61.881944,56.0004918" id="Fill-54" fill="#FFFFFF" fill-rule="nonzero" mask="url(#mask-13)"></path>
                        </g>
                        <g id="Fill-55-Clipped">
                            <mask id="mask-15" fill="white">
                                <use xlink:href="#path-14"></use>
                            </mask>
                            <g id="path-8"></g>
                            <path d="M40.7733648,58.3616773 C40.8476307,57.0540444 40.9250486,55.7464115 41.0357581,54.4417335 C41.0515175,54.2575459 41.2165968,54.058387 41.3627648,53.9175378 C41.9726521,53.3293196 42.590222,52.7485872 43.2265061,52.1897209 C43.6159593,51.8485308 43.8129513,51.4756249 43.5759699,50.9784171 C43.403208,50.6163458 42.8784213,50.4829822 42.3457549,50.6653968 C42.0703601,50.759559 41.8099367,50.8970594 41.4858848,51.0400756 C41.7094707,49.5100387 41.6383566,49.3849488 40.6886582,49.3018182 C40.3094486,49.9808496 39.9284661,50.6064962 39.610324,51.2624796 C39.5055242,51.4781858 39.4905529,51.7967219 39.5660008,52.0248386 C39.6741494,52.3514514 39.9761381,52.3465266 40.2808848,52.2425148 C40.6143922,52.1286534 40.9591282,52.0469017 41.2993334,51.9511636 C40.4548287,53.2034418 39.6684366,54.4159275 38.4805749,55.2939209 C37.8297133,54.7545568 37.2170682,54.2474994 36.5981193,53.7351232 C36.5004113,53.9384189 36.4379648,54.1468364 36.3160268,54.3109308 C35.4949641,55.4158589 34.661294,56.5107404 33.8333366,57.6099558 C33.5581388,57.974982 33.0209416,58.2409212 33.3944384,58.9676247 C35.1025561,58.0827366 36.286872,56.6874423 37.4199699,55.1544505 C37.762736,55.9875297 37.2481929,56.5507298 37.0447002,57.1606171 C36.77817,57.9592226 36.4229934,58.7328102 35.5199821,59.0123419 C35.5877474,59.1862858 35.6147353,59.2920705 35.6665442,59.3830808 C36.1659189,60.2577253 36.6046201,60.2736816 37.0671573,59.3635786 C37.3998768,58.7070043 37.6045514,57.9852256 37.8718696,57.2943746 C37.9461356,57.1032924 37.9904588,56.8546885 38.1340659,56.7447669 C38.7638494,56.2643035 39.4251515,55.8252083 40.2139075,55.2734337 C40.1532339,56.1910224 40.3547568,57.0191768 40.028144,57.8248741 C39.7218215,58.5807324 39.9337849,59.1904226 40.496394,59.7985369 C41.5325719,59.5211722 41.9234041,58.6934118 42.269322,57.8116756 C41.8552448,58.1087395 41.4413646,58.4061975 41.01468,58.712323 C40.8844682,58.5291205 40.7688339,58.441853 40.7733648,58.3616773" id="Fill-55" fill="#FFFFFF" fill-rule="nonzero" mask="url(#mask-15)"></path>
                        </g>
                        <g id="Fill-56-Clipped">
                            <mask id="mask-17" fill="white">
                                <use xlink:href="#path-16"></use>
                            </mask>
                            <g id="path-8"></g>
                            <path d="M43.0279973,56.1062765 C43.3603228,55.8403373 43.6067598,55.6476791 43.847878,55.4485202 C44.8174726,54.6487327 44.7798472,54.1869834 43.7216061,53.483328 C43.0295732,54.1420692 42.3393133,54.7899759 41.6606758,55.4495051 C41.1307673,55.9636543 41.2012905,56.2522475 41.927206,56.4452997 C43.1522993,56.7711245 44.3622241,57.1186184 45.4019479,57.8933879 C45.6751758,58.0970776 45.9809074,58.1731165 46.2937307,57.7296875 C45.7350614,56.2079243 44.1453359,56.708481 43.0279973,56.1062765" id="Fill-56" fill="#FFFFFF" fill-rule="nonzero" mask="url(#mask-17)"></path>
                        </g>
                        <g id="Fill-57-Clipped">
                            <mask id="mask-19" fill="white">
                                <use xlink:href="#path-18"></use>
                            </mask>
                            <g id="path-8"></g>
                            <path d="M33.7139791,54.0436323 C34.9055838,53.8208344 35.9752503,53.3096401 36.9259337,52.5648134 C37.1325783,52.403083 37.2614111,52.1420686 37.4260964,51.9269533 C37.3845311,51.8337761 37.3433598,51.7409928 37.3017944,51.6480126 C35.5200018,51.9704885 33.8335533,52.6637034 32.0056645,53.0001657 C32.4601251,53.7434165 32.9344818,54.1892094 33.7139791,54.0436323" id="Fill-57" fill="#FFFFFF" fill-rule="nonzero" mask="url(#mask-19)"></path>
                        </g>
                        <g id="Fill-58-Clipped">
                            <mask id="mask-21" fill="white">
                                <use xlink:href="#path-20"></use>
                            </mask>
                            <g id="path-8"></g>
                            <path d="M48.6895868,55.0797512 C47.9031947,54.737773 47.3652096,54.2990719 46.5057335,54.5541765 C47.0632208,54.9918927 47.5430933,55.3683444 48.0755627,55.7861645 C48.1582994,55.6912143 48.3734146,55.4433984 48.6895868,55.0797512" id="Fill-58" fill="#FFFFFF" fill-rule="nonzero" mask="url(#mask-21)"></path>
                        </g>
                        <g id="Fill-59-Clipped">
                            <mask id="mask-23" fill="white">
                                <use xlink:href="#path-22"></use>
                            </mask>
                            <g id="path-8"></g>
                            <path d="M50.1408662,51.059893 C49.6576449,50.543183 49.2343091,50.4704929 48.5802956,50.7031405 C49.1021274,51.0401938 49.4602589,51.3388337 50.1408662,51.059893" id="Fill-59" fill="#FFFFFF" fill-rule="nonzero" mask="url(#mask-23)"></path>
                        </g>
                        <g id="Fill-60-Clipped">
                            <mask id="mask-25" fill="white">
                                <use xlink:href="#path-24"></use>
                            </mask>
                            <g id="path-8"></g>
                            <path d="M25.470711,57.4205677 C25.4634223,57.3561513 25.4561336,57.2915379 25.4492389,57.2269246 C25.740984,57.1845713 26.0329262,57.142021 26.3252623,57.0996677 C26.3295961,57.2066344 26.3345209,57.313601 26.3386578,57.4205677 L25.470711,57.4205677 Z M22.6336322,57.6825671 C23.3368937,57.5072442 23.8439511,57.3809723 24.387058,57.2458358 C23.895563,57.8145517 23.672568,57.881135 22.6336322,57.6825671 L22.6336322,57.6825671 Z M21.8344357,55.0771509 C21.8344357,55.0771509 22.8647038,54.2243725 23.255733,54.4022563 C23.255733,54.4022563 22.936015,55.3614103 21.8344357,55.0771509 L21.8344357,55.0771509 Z M22.8838121,52.1880662 C22.7272034,52.2601653 22.5851722,52.364571 22.3704509,52.4949797 C22.3385382,52.167776 22.319627,51.9692081 22.2952,51.7213921 C22.7023824,51.7889604 23.0534222,51.847073 23.5866795,51.9353255 C23.2584909,52.0513537 23.0644537,52.1055265 22.8838121,52.1880662 L22.8838121,52.1880662 Z M23.4700603,49.7969773 L23.4700603,50.9405159 L22.6348142,50.9405159 C22.7908318,50.2289807 22.7908318,50.2289807 23.4700603,49.7969773 L23.4700603,49.7969773 Z M27.7727595,57.0862723 C28.2116577,56.944635 28.5821997,56.8248639 28.9535296,56.7050927 C28.9446649,56.6081727 28.9365883,56.5110556 28.9277236,56.4139386 C28.3408845,56.3310049 27.7544393,56.2480713 26.875461,56.1237694 C28.0288491,55.7289974 27.4099003,54.6628767 28.1117828,54.2988355 C27.8310692,53.5983319 27.3240118,54.0921909 26.9635164,53.9584333 C27.1039717,53.2195163 26.4397147,53.3522889 26.1997784,53.2744771 C25.9509775,53.4143414 26.3024112,53.5776478 26.2309031,53.694464 C25.6212129,54.6922285 25.2552018,54.3534023 24.8998282,54.7200044 C24.7534631,54.8297289 24.8001502,54.8917814 24.9843378,54.9087227 C25.5991498,54.8141665 26.2137648,54.7192164 26.8285769,54.6248572 C27.1486889,54.6118558 27.2416691,54.7363547 26.8945692,54.8819318 C26.2667557,55.0787268 25.6389422,55.2757188 24.8712644,55.516443 C25.1862546,55.7831702 25.3617744,55.9317022 25.5367033,56.0806281 C24.313383,56.7923602 23.9879522,56.872142 22.8209716,56.6538748 C23.5443262,56.3737522 24.1002377,56.158243 24.7375068,55.911412 C24.4737345,55.6773855 24.3202777,55.541264 24.1709578,55.4088854 C24.2785154,55.1098515 24.4530503,54.8226372 24.4768864,54.5236033 C24.5645478,53.4330556 24.7465684,53.1574638 25.6972518,52.7540242 C26.0666118,52.5970216 26.9284518,52.4218957 26.776177,52.1742767 C26.3717524,51.2694925 25.5132613,51.7026779 24.881311,51.3335149 C25.0737721,51.1503123 25.1740411,50.9730195 25.3109505,50.937167 C26.2659677,50.6879721 27.219803,50.4108044 28.1923525,50.2628634 C28.6915302,50.1868245 29.238971,50.3154602 29.7422855,50.4423231 C29.9061829,50.4836914 30.1080997,50.8221237 30.0907644,51.0055232 C30.0744141,51.1751333 29.8086718,51.4156606 29.6164077,51.4574229 C28.8619283,51.6209262 28.0942505,51.7643364 27.3474538,51.3752772 C27.1813895,51.2884037 26.972578,51.2832819 26.7834657,51.2403377 C27.6823402,52.0237749 28.695667,52.4370641 29.8740732,52.265484 C30.1415883,52.2266766 30.4169831,52.0925251 30.641751,51.9351285 C31.2857179,51.4844108 31.2687766,50.788832 30.568076,50.4088344 C30.1758649,50.1966741 29.6959924,50.0375045 29.2574882,50.0416414 C28.2737102,50.051491 27.2854013,50.1375765 26.3102909,50.27291 C25.7531975,50.3503278 25.2837656,50.3928781 24.9390296,49.829678 C25.420872,49.3243935 25.864695,48.8590984 26.308321,48.3938033 C26.2732564,48.3244621 26.2385858,48.2553179 26.2035213,48.1859767 C25.2467311,48.3124456 24.290335,48.4387175 23.3215283,48.5665653 C23.2513991,48.8135932 23.2474593,49.1212947 23.0943965,49.3050883 C22.7212937,49.7530481 22.2169942,50.098572 21.8797438,50.567413 C21.3850969,51.2553091 20.6428311,51.8659843 20.841793,52.9600778 C20.9418649,53.1489932 21.1388569,52.9870657 21.2789182,52.9894296 C21.9362806,53.0006582 22.5743376,53.004992 23.081789,53.5605095 C22.4001967,54.1012525 20.5273938,54.8196823 21.0509985,55.172495 C21.2869949,55.7313613 21.8220252,58.3584466 21.5344169,59.9946622 C22.4880551,59.9521119 22.4880551,59.9521119 22.7585252,59.0597381 C23.3459553,58.6982578 23.8740909,58.4183322 24.3494326,58.0676864 C24.8196525,57.7207835 25.1570998,57.7853969 25.5079425,58.2193703 C25.0617556,58.964 24.264332,58.7977388 23.5214752,59.0518584 C24.7526752,59.9131075 25.6103783,58.913964 26.5965203,58.6793466 C26.924512,58.9659699 27.2489578,59.2368339 27.5592202,59.5234573 C28.1752142,60.0921732 28.8518817,60.3336854 29.7032811,60.0994619 C30.3797517,59.9131075 31.08518,59.8343107 31.9493839,59.6761261 C30.4114674,59.1231695 28.8168171,59.0733306 27.6807643,57.9914505 C27.7160258,57.6396228 27.7469536,57.3372401 27.7727595,57.0862723 L27.7727595,57.0862723 Z" id="Fill-60" fill="#FFFFFF" fill-rule="nonzero" mask="url(#mask-25)"></path>
                        </g>
                    </g>
                    <path d="M16.841831,34.5443204 L17.3839625,34.8807055 C18.0945268,35.3218479 18.7599815,35.7355311 19.428336,36.1460624 L19.428336,36.1460624 L19.5646483,36.2300025 C19.7018471,36.3136903 19.8423147,36.3935828 19.9915361,36.4423383 L19.9915361,36.4423383 L20.9153994,36.7407375 C21.5320136,36.9376857 22.1501745,37.1299061 22.7706993,37.312846 L22.7706993,37.312846 L23.2912933,37.4592901 C26.9373112,38.4373793 30.6222542,38.4333365 34.3380695,37.779717 L34.3380695,37.779717 L34.5553214,37.7432959 C35.1353156,37.6519349 35.7208439,37.6158635 36.3188241,37.8557559 L36.3188241,37.8557559 L36.7461396,38.0201297 C38.8885993,38.8074912 41.118645,39.0797904 43.4073842,38.9516224 L43.4073842,38.9516224 L43.485798,38.9520684 C43.5923124,38.9583596 43.7098457,38.9851505 43.8764221,39.0050073 L43.8764221,39.0050073 L43.7983441,39.201167 C43.4952084,39.8995685 43.0069159,40.367486 42.3396876,40.5677448 L42.3396876,40.5677448 L40.7134237,41.0496529 C39.6287712,41.3687362 38.544177,41.6876443 37.4657115,42.0315924 L37.4657115,42.0315924 L37.2096654,42.1020096 C36.518411,42.2637559 35.7622341,42.2255638 35.0082363,42.187216 L35.0082363,42.187216 L34.6619098,42.1703988 C34.4314437,42.1601406 34.202145,42.1527424 33.9759982,42.1539244 L33.9759982,42.1539244 L33.4445795,42.1396023 C33.0902127,42.1215083 32.7356709,42.0917406 32.380954,42.0828103 L32.380954,42.0828103 L32.2716642,42.0778309 C32.0466143,42.0645021 31.7910474,42.0390781 31.6544475,42.1478176 L31.6544475,42.1478176 L31.5156928,42.2472842 C31.0529052,42.5435561 30.5870883,42.4971086 30.1089615,42.4113385 L29.8205341,42.357585 C29.7238497,42.3397124 29.6265987,42.322694 29.5287068,42.3089571 L29.5287068,42.3089571 L28.9622634,42.2439813 C28.204566,42.1744194 27.4383459,42.164365 26.6784296,42.1084192 L26.6784296,42.1084192 L26.1529534,42.0694733 C25.6273911,42.0295363 25.1020503,41.9839203 24.5812527,41.9082754 L24.5812527,41.9082754 L24.3636331,41.8734215 C24.0053357,41.8122855 23.6634998,41.744378 23.2549056,41.7965809 L23.2549056,41.7965809 L23.0782022,41.8054126 C22.5992992,41.794701 22.0645705,41.5222586 21.6114013,41.2849927 L21.6114013,41.2849927 L20.9413977,40.9111326 C20.2792922,40.5223997 19.6357193,40.0987069 18.9642228,39.726983 L18.9642228,39.726983 L18.7937536,39.6244564 C18.1933986,39.2327971 17.861199,38.6695956 17.680623,37.9834068 L17.680623,37.9834068 L17.3067568,36.5471873 L17.3067568,36.5471873 L16.9389481,35.1094905 C16.8985647,34.949336 16.8820174,34.7832717 16.841831,34.5443204 L16.841831,34.5443204 Z M30.7469053,3.11999997e-07 L30.9638246,0.011434495 C31.5484342,0.068120632 32.1748785,0.32801388 32.6648195,0.638648376 L32.6648195,0.638648376 L32.874748,0.773355555 C33.9205411,1.45318644 34.8991027,2.23587182 35.383703,3.50074514 L35.383703,3.50074514 L35.4375813,3.62621758 C35.741829,4.25936406 36.3113036,4.31669759 36.9001475,3.83779845 L36.9001475,3.83779845 L37.1757608,3.59595384 C37.4442024,3.34523227 37.6951087,3.07268153 37.9642982,2.82151673 L37.9642982,2.82151673 L38.1071148,2.69378485 C39.3482695,1.63160695 40.6736824,1.73523717 41.737877,3.0190997 L41.737877,3.0190997 L41.9317423,3.26907309 C42.1808411,3.61082427 42.3944119,3.98369073 42.5967621,4.35529644 L42.5967621,4.35529644 L42.8266207,4.79044316 C43.9462843,6.97629039 44.61987,9.31290792 44.7735237,11.7582558 L44.7735237,11.7582558 L44.8099426,12.2380598 C44.9094636,13.3501943 45.1124484,14.4128215 45.4537371,15.4752978 L45.4537371,15.4752978 L45.4827575,15.6075099 C45.5184228,15.8823396 45.4266648,16.2131173 45.3304201,16.4831089 L45.3304201,16.4831089 L45.2900956,16.5947658 C45.1429412,17.0016261 45.0168088,17.3817536 45.3505133,17.7779373 L45.3505133,17.7779373 L45.38916,17.8296028 C45.4393882,17.9046111 45.4804886,18.0001443 45.4653596,18.0686975 L45.4653596,18.0686975 L45.4258128,18.3055252 C45.3206637,19.243172 45.8249306,20.0697271 45.9651283,20.9607371 L45.9651283,20.9607371 L45.9931894,21.2315711 C46.013809,21.5958078 45.9735596,21.970912 45.948187,22.3373172 L45.948187,22.3373172 L45.7823936,24.6175488 L45.7823936,24.6175488 L45.6129066,26.897485 L45.6061473,27.0046609 C45.6014565,27.1132897 45.6055194,27.2242455 45.6412735,27.3192448 L45.6412735,27.3192448 L45.7220841,27.5532911 C46.162905,28.9497804 45.8174051,30.2082155 45.0341441,31.4436663 L45.0341441,31.4436663 L44.9637564,31.5823376 C44.8266377,31.9240006 44.8674889,32.3836629 44.8371521,32.7790751 L44.8371521,32.7790751 L44.8281323,32.9483147 C44.8047399,33.684185 44.9626923,34.4488215 44.4179532,35.097277 L44.4179532,35.097277 L44.4033903,35.1369791 C44.3959393,35.2166377 44.4638195,35.3572407 44.4754748,35.4613182 L44.4754748,35.4613182 L44.5016675,35.728899 C44.5180689,35.9097376 44.5331278,36.097668 44.5515137,36.3058229 L44.5515137,36.3058229 L44.1160771,36.3536417 C42.8196093,36.4774896 41.6079017,36.4220679 40.3778442,36.1119828 L40.3778442,36.1119828 L40.5565743,36.008875 C41.1665056,35.6591012 41.3033732,35.6125678 41.8408148,35.6077476 L42.1789421,35.6076832 L42.4394184,35.6049427 C42.8756645,35.5949608 43.3277338,35.560241 43.8740582,35.5357812 L43.8740582,35.5357812 L43.7485101,35.407412 C43.1527891,34.8812748 42.4250376,35.3318156 41.7997325,34.9032399 L41.7997325,34.9032399 L41.9418772,34.6456941 C42.1285752,34.2981119 42.309272,33.9384518 42.5477111,33.6227919 L42.5477111,33.6227919 L42.6363361,33.5051695 C43.0171611,32.9957854 43.3440935,32.4836715 43.1461728,31.7036958 L43.1461728,31.7036958 L42.869673,32.0078453 C42.5987567,32.3059003 42.3429379,32.5875004 42.0873408,32.8691005 L42.0873408,32.8691005 L42.0294498,32.8310564 L42.0294498,32.8310564 L41.9722975,32.7928646 L42.0644678,32.6285367 C42.1250976,32.5184109 42.1859025,32.4084018 42.2577389,32.3060973 L42.2577389,32.3060973 L42.4120215,32.0734374 C43.1949471,30.8230475 43.3410674,29.4237799 42.9387402,28.053828 L42.9387402,28.053828 L42.8514336,27.8070047 C42.68408,27.4019586 42.4132121,27.0269489 42.1242997,26.6580656 L41.7744135,26.2168162 C41.6585444,26.0696931 41.5452582,25.92202 41.4400251,25.7722667 L41.4400251,25.7722667 L41.3960165,25.7215431 C41.3093811,25.6368456 41.1652212,25.5579394 41.097259,25.5835483 L41.097259,25.5835483 L40.9707817,25.621113 C40.4858565,25.7241575 40.2431017,25.2824991 39.8956078,25.0833856 L39.8956078,25.0833856 L39.7316776,24.9887365 C39.4579135,24.8309787 39.1773093,24.6780089 38.8283052,24.6023312 L38.8283052,24.6023312 L39.2018266,25.0768849 L39.2018266,25.0768849 L39.5749048,25.5514386 L39.5050219,25.6397157 L39.5050219,25.6397157 L39.4348435,25.7281405 L38.7914809,25.3882298 C37.1817635,24.5420966 35.5517025,23.7531334 33.6647508,23.6928191 L33.6647508,23.6928191 L34.0428478,23.8340324 C34.5491267,24.0180765 35.0606756,24.1916817 35.5375538,24.4331151 L35.5375538,24.4331151 L36.0994211,24.7305483 C36.6565545,25.0381144 37.19992,25.3740473 37.7334236,25.7200638 L37.7334236,25.7200638 L37.8945137,25.8335209 C39.3484893,26.9435509 39.4191385,29.4531437 38.4057573,30.7461177 L38.4057573,30.7461177 L38.1838352,31.0025323 C37.7159959,31.4964642 37.1158537,31.886026 36.5934309,32.3334792 L36.5934309,32.3334792 L36.3226638,32.1701383 C34.3855289,30.9398021 33.4995773,29.0048112 32.6350737,27.0525177 L32.6350737,27.0525177 L32.5122245,27.1068875 L32.5122245,27.1068875 L32.3892276,27.1612573 L32.3123677,27.3504862 C32.2091376,27.6047099 32.1013435,27.8705073 31.9702257,28.1946773 L31.9702257,28.1946773 L31.7587794,27.5707728 C31.5509405,26.957506 31.3528527,26.3729938 31.1548758,25.788814 L31.1548758,25.788814 L30.9169094,25.8205297 L30.8962694,26.0125181 C30.8685518,26.2702152 30.8396492,26.5382504 30.804821,26.8584806 L30.804821,26.8584806 L30.5802686,26.5721157 C30.3608872,26.2923625 30.1556339,26.0306709 29.9520426,25.7710847 L29.9520426,25.7710847 L29.8023554,25.814815 C28.8716045,26.138012 29.250526,27.082573 28.9229564,27.9358298 L28.9229564,27.9358298 L28.8539369,27.7348302 C28.7234879,27.3547758 28.6360235,27.0990641 28.5455197,26.8358265 L28.5455197,26.8358265 L28.4022033,26.8374701 C27.4368362,26.8590109 27.2601917,27.0999301 27.4886577,28.103864 L27.4886577,28.103864 L27.5677177,28.431633 C27.9831568,30.0603339 28.705071,31.5343689 29.9311615,32.7412527 L29.9311615,32.7412527 L30.0473206,32.8633877 C30.1990076,33.0325487 30.3429535,33.2280593 30.5394728,33.4630313 L30.5394728,33.4630313 L30.4203036,33.5110391 C30.2703187,33.5762387 30.1532897,33.6407575 30.0371432,33.6393392 L30.0371432,33.6393392 L29.5591814,33.6260664 C27.9692384,33.555725 26.4130993,33.2267484 24.9259887,32.7097339 L24.9259887,32.7097339 L24.6629298,32.614717 C23.4405946,32.1560218 22.2987064,31.4771156 21.5154662,30.3154932 L21.5154662,30.3154932 L21.4168996,30.155626 C20.8868465,29.2157081 20.8452338,27.7213602 21.5004948,26.8783767 L21.5004948,26.8783767 L21.6455116,26.696501 C22.1375165,26.0969941 22.7190336,25.5720512 23.490705,25.3349444 L23.490705,25.3349444 L24.8048897,24.9409094 C25.6824818,24.6829666 26.5624669,24.4327867 27.4415766,24.1799803 L27.4415766,24.1799803 L28.6994365,23.8248629 C31.2186208,23.124658 33.7539319,22.4711592 36.22151,21.6218422 L36.22151,21.6218422 L36.5880109,21.4894369 C38.769129,20.6634701 40.6251832,19.2694674 41.9888448,17.2856543 L41.9888448,17.2856543 L42.0858427,17.1310123 C42.4102463,16.5609727 42.3974555,15.9584207 42.2658156,15.3462681 L42.2658156,15.3462681 L42.20153,15.1033533 C42.1021704,14.7823982 41.9547258,14.4717812 41.837161,14.1548605 L41.837161,14.1548605 L41.7527114,13.9493195 C41.24301,12.823546 40.2122834,12.3498884 39.0989722,12.0094206 L39.0989722,12.0094206 L38.7707076,11.9160123 C37.4558724,11.5705574 36.1202107,11.5626124 34.7816955,11.8695563 L34.7816955,11.8695563 L34.6377542,11.899784 C34.0176329,12.0174741 33.4439791,11.9533342 32.8915572,11.3573771 L32.8915572,11.3573771 L33.0883338,11.28662 C33.2716287,11.2206892 33.4224014,11.1663933 33.611957,11.0981356 L33.611957,11.0981356 L33.4584041,10.970874 C33.2537783,10.8012844 33.0444624,10.6278369 32.7688312,10.399799 L32.7688312,10.399799 L32.9591775,10.3162507 C33.1988963,10.2110727 33.3875043,10.1284622 33.587333,10.0406825 L33.587333,10.0406825 L33.5120396,9.98884771 C33.3097664,9.84966601 33.0873454,9.69715039 32.6474842,9.39474578 L32.6474842,9.39474578 L32.8396068,9.29807196 C33.0190603,9.20783731 33.1702024,9.1320077 33.3802944,9.02637074 L33.3802944,9.02637074 L33.2505677,8.98635923 C32.6372351,8.73960288 33.231183,7.97694801 32.6608796,7.55700741 L32.6608796,7.55700741 L32.5636502,7.46892343 C32.2644666,7.1408496 32.2016734,6.48268468 31.9926828,5.92985349 L31.9926828,5.92985349 L31.8863033,6.02530189 C31.3465557,6.59747701 31.8318826,7.67350629 30.9401545,7.81211205 L30.9401545,7.81211205 L30.8733126,8.14887603 C30.8082314,8.47651682 30.7468068,8.78515404 30.6744123,9.15008172 L30.6744123,9.15008172 L30.6851159,9.15919906 C30.720223,9.1891786 30.8358613,9.28817311 31.00201,9.43000735 L31.00201,9.43000735 L30.7764979,9.63642578 C30.6272655,9.77307986 30.4782083,9.90961721 30.3170688,10.0568359 L30.3170688,10.0568359 L30.4086844,10.089312 C30.5938546,10.1549258 30.7970539,10.2267837 31.1334036,10.3458231 L31.1334036,10.3458231 L30.9290505,10.5073723 C30.6704015,10.7118658 30.459888,10.8784107 30.2116781,11.0750875 L30.2116781,11.0750875 L30.3063767,11.1121416 C30.4950651,11.1860222 30.6867102,11.2613294 31.0110716,11.3883048 L31.0110716,11.3883048 L30.80646,11.5254696 C30.5499921,11.6974168 30.3512666,11.8307094 30.1185009,11.9865695 L30.1185009,11.9865695 L30.2205265,12.033295 C30.5855183,12.2096739 30.8442686,12.447974 30.7949714,12.9577401 L30.7949714,12.9577401 L30.7747688,13.085826 C30.6848659,13.4831356 30.3766141,13.5954211 30.0678739,13.7650133 L30.0678739,13.7650133 L29.6573863,13.9806277 C28.0047872,14.8093541 26.2268936,15.2409834 24.4134156,15.5519277 L24.4134156,15.5519277 L24.2123333,15.5837254 C23.5418546,15.6802737 22.8705026,15.6741523 22.2335021,15.3184922 L22.2335021,15.3184922 L22.0978455,15.2368403 C21.0558206,14.5615162 21.052409,13.3701389 22.1698737,12.7105151 L22.1698737,12.7105151 L22.5724969,12.4824961 C23.1148522,12.1873359 23.677808,11.9260142 24.2434115,11.679065 L24.2434115,11.679065 L24.3436394,11.6452832 C24.4818112,11.6105118 24.6367257,11.6136637 24.7916402,11.6168155 L24.7916402,11.6168155 L24.9210147,11.6186377 L24.9210147,11.6186377 L25.0483208,11.6154366 L25.1300672,11.607644 C25.4172457,11.568755 25.563422,11.4126169 25.4742175,11.014808 L25.4742175,11.014808 L25.1967109,11.0480287 C24.8239075,11.0926592 24.4343361,11.1393069 23.9609249,11.1960406 L23.9609249,11.1960406 L24.0951419,11.0578706 C24.6611382,10.5249227 25.5652126,10.2307495 26.3947611,10.2469332 L26.3947611,10.2469332 L26.4212411,10.1457254 C26.4504852,10.0439206 26.4820285,9.94164481 26.4619354,9.85078231 L26.4619354,9.85078231 L26.4352327,9.78222432 C26.3861959,9.69322806 26.2888976,9.61159458 26.2089976,9.50978911 L26.2089976,9.50978911 L26.0345055,9.60288774 C25.1050395,10.0979902 24.1902004,10.5532557 23.1024338,10.1498161 L23.1024338,10.1498161 L24.2841888,10.1498161 L24.2622115,10.0423971 C24.1660059,9.67870701 23.9034033,9.6396725 23.6542084,9.68373305 L23.6542084,9.68373305 L23.3183863,9.75386528 C22.9841155,9.83284371 22.6538338,9.93445461 22.3215575,10.0235442 L22.3215575,10.0235442 L21.9371245,10.127516 C21.5507647,10.2326636 21.1555126,10.3418833 20.7233614,10.4600785 L20.7233614,10.4600785 L21.1080283,10.5458685 C21.4836397,10.6296024 21.8347903,10.7077959 22.18583,10.7861003 L22.18583,10.7861003 L21.9840147,10.793283 C21.916743,10.7951116 21.8494816,10.7964573 21.7822607,10.797568 L21.3796642,10.8033934 C20.4425384,10.819657 19.5252342,10.8870039 18.7108911,11.6855657 L18.7108911,11.6855657 L18.6662107,11.5626852 C18.5767476,11.332749 18.4923707,11.19393 18.5156721,11.0772544 L18.5156721,11.0772544 L18.5730875,10.8080459 C18.8334925,9.64730862 19.252591,8.56557831 20.1357343,7.68682514 L20.1357343,7.68682514 L20.2773338,7.55311514 C20.9442393,6.95692513 21.697106,6.7522163 22.554993,7.04069138 L22.554993,7.04069138 L22.7017435,7.08423266 C23.2280887,7.21848213 23.627598,7.07372037 23.9762903,6.6634517 L23.9762903,6.6634517 L24.1376836,6.480789 C24.4681994,6.1177919 24.8330367,5.7640988 25.0152261,5.33572562 L25.0152261,5.33572562 L25.1819866,4.97429455 C25.8284173,3.6741624 26.8447893,2.64053033 27.7429743,1.55111532 L27.7429743,1.55111532 L27.8814175,1.39168785 C28.5510784,0.658462269 29.5443348,0.084037099 30.5794621,0.00571308 L30.5794621,0.00571308 L30.6498129,0.001674744 L30.6498129,0.001674744 L30.7209024,3.11999997e-07 L30.7469053,3.11999997e-07 Z M43.5066682,27.8150737 C43.5574921,28.6958249 43.6047702,29.5226004 43.6524422,30.3487848 L43.6524422,30.3487848 L43.6847617,30.216633 C43.8924887,29.4211009 44.3216552,28.5806054 43.5066682,27.8150737 Z M18.3612303,13.5339417 L18.3353073,13.7654007 C18.1522064,15.7485436 19.0471711,17.137582 20.8145687,17.9024363 L20.8145687,17.9024363 L21.1247327,18.0285935 C22.9878554,18.7382444 24.8882181,18.6054074 26.7578173,18.1037621 L26.7578173,18.1037621 L27.4416823,17.9074593 C28.8034426,17.4922909 30.1318119,16.9514152 31.470457,16.4588789 L31.470457,16.4588789 L32.2258661,16.1714471 C33.2299265,15.7792723 34.2244051,15.3602939 35.2456116,15.0216253 L35.2456116,15.0216253 L35.4531786,14.9645763 C35.8787882,14.8697444 36.3606145,14.888318 36.7791944,14.9808479 L36.7791944,14.9808479 L36.866123,15.0120175 C37.097137,15.1256881 37.3170482,15.4708765 37.4121297,15.7380852 L37.4121297,15.7380852 L37.4388747,15.8401004 C37.4935899,16.1708945 37.2145288,16.4099712 36.9188617,16.5827869 L36.9188617,16.5827869 L36.541602,16.8093267 C35.9154501,17.1930735 35.2983727,17.5984119 34.6304056,17.8856919 L34.6304056,17.8856919 L34.2922351,18.011765 C33.7181357,18.1970652 33.0969542,18.2712381 32.5086048,18.4289959 L32.5086048,18.4289959 L30.28779,19.0316674 C28.8080006,19.4361722 27.3287658,19.8425448 25.8443654,20.2293058 L25.8443654,20.2293058 L24.7855704,20.4893691 C23.7237342,20.7377914 22.6553604,20.9610326 21.6037187,21.2467695 L21.6037187,21.2467695 L21.1432404,21.3807689 C19.7716714,21.8068 18.4880538,22.4461355 17.2696977,23.2180684 L17.2696977,23.2180684 L17.1186263,23.3130093 C16.9650742,23.4086089 16.8012999,23.5083361 16.6022888,23.6315546 L16.6022888,23.6315546 L16.5718351,23.3662361 C16.4724227,22.4906518 16.4057266,21.7007465 16.7232419,20.9237026 L16.7232419,20.9237026 L16.7537172,20.823047 C16.7690097,20.7539392 16.7766267,20.6817964 16.7908101,20.6124552 L16.7908101,20.6124552 L17.446301,17.3897153 L17.446301,17.3897153 L18.1059287,14.1678619 C18.1382354,14.0092834 18.2266848,13.8621303 18.3612303,13.5339417 L18.3612303,13.5339417 Z M28.7465479,10.1485707 C28.2586271,10.0185355 27.3149259,10.0695343 26.4262798,10.250282 L26.4262798,10.250282 L26.8366388,10.3537521 L26.8366388,10.3537521 L27.2424177,10.4598815 L27.2200098,10.586178 L27.2200098,10.586178 L27.1973065,10.7126223 L26.3749634,10.6422961 L26.3749634,10.6422961 L25.5526203,10.57197 L25.7243776,10.6724471 C26.8621047,11.2920561 27.8559539,10.9175033 28.858737,10.1848807 L28.858737,10.1848807 L28.7465479,10.1485707 Z" id="Fill-6" fill="#5CBFE5" fill-rule="nonzero"></path>
                </g>
            </g>
            <g id="header_name" transform="translate(134.000000, 44.000000)" fill-rule="nonzero">
                <g id="栖霞全域旅游">
                    <use fill="black" fill-opacity="1" filter="url(#filter-27)" xlink:href="#path-26"></use>
                    <use fill="#5CBFE5" xlink:href="#path-26"></use>
                </g>
                <g id="旅游智能监控大屏">
                    <use fill="black" fill-opacity="1" filter="url(#filter-30)" xlink:href="#path-29"></use>
                    <use fill="url(#linearGradient-28)" xlink:href="#path-29"></use>
                </g>
            </g>
        </g>
    </g>
</svg>