<?xml version="1.0" encoding="UTF-8"?>
<svg width="16px" height="16px" viewBox="0 0 16 16" version="1.1" xmlns="http://www.w3.org/2000/svg" xmlns:xlink="http://www.w3.org/1999/xlink">
    <title>icon_search</title>
    <g id="监控（产品）" stroke="none" stroke-width="1" fill="none" fill-rule="evenodd">
        <g id="监控（6）" transform="translate(-80.000000, -286.000000)">
            <g id="list" transform="translate(40.000000, 152.000000)">
                <g id="search" transform="translate(24.000000, 122.000000)">
                    <g id="icon_search" transform="translate(16.000000, 12.000000)">
                        <rect id="矩形" fill="#D8D8D8" opacity="0" x="0" y="0" width="16" height="16"></rect>
                        <path d="M7.43299418,0 C3.33441583,0 0,3.33126035 0,7.42635444 C0,11.521537 3.33450436,14.8527089 7.43354892,14.8527089 C8.50678428,14.8521379 9.54277694,14.6282307 10.5111382,14.1876285 C10.9016586,14.0099957 11.0741734,13.5498072 10.8962085,13.1600318 C10.7185108,12.7692903 10.2555416,12.5960729 9.86662807,12.7759502 C9.10184946,13.1236004 8.28327165,13.3002832 7.43285462,13.3008176 C4.1910315,13.3008175 1.55327888,10.6654211 1.55327888,7.42635444 C1.55327888,4.18764756 4.19122608,1.55189137 7.43299418,1.55189137 C10.6755406,1.55189137 13.313819,4.18731675 13.313819,7.42635444 C13.313819,8.95120361 12.7320627,10.3954799 11.6754064,11.494468 C11.3782795,11.8029558 11.3878833,12.2939934 11.6963446,12.5913111 L11.7427883,12.6279618 L11.7259709,12.5969488 C11.741602,12.6284882 11.7595482,12.657707 11.7878305,12.6876261 L14.6561629,15.7539825 C14.8038727,15.9128561 15.0094523,16 15.2232425,16 C15.4190998,16 15.6081927,15.9269141 15.753924,15.7903659 L15.8389085,15.6974499 C16.0671321,15.4029297 16.0544159,14.9766971 15.7908043,14.6951571 L13.274987,12.0060967 L13.1539106,12.1599153 C14.2641803,10.8239615 14.8670978,9.16374617 14.8670978,7.42635444 C14.8670978,3.33144903 11.5323161,0 7.43299418,0 Z" id="路径" fill="#FFFFFF" fill-rule="nonzero" opacity="0.449999988"></path>
                    </g>
                </g>
            </g>
        </g>
    </g>
</svg>