<?xml version="1.0" encoding="UTF-8"?>
<svg width="20px" height="20px" viewBox="0 0 20 20" version="1.1" xmlns="http://www.w3.org/2000/svg" xmlns:xlink="http://www.w3.org/1999/xlink">
    <title>icon</title>
    <g id="控件" stroke="none" stroke-width="1" fill="none" fill-rule="evenodd">
        <g id="cell" transform="translate(-20.000000, -20.000000)">
            <g id="icon" transform="translate(20.000000, 20.000000)">
                <rect id="矩形" fill="#D8D8D8" opacity="0" x="0" y="0" width="20" height="20"></rect>
                <path d="M18.1491234,10.3648926 C18.1447901,10.0830863 18.0072345,9.82373728 17.7799578,9.67658167 L6.05948931,2.11970049 C5.69216581,1.88465803 5.20260323,2.00522214 4.96776298,2.39836787 L1.47629187,8.2875755 C1.24411257,8.67909205 1.35367323,9.19016778 1.72401214,9.4307526 L10.9462999,15.3788648 C11.0134852,15.4208517 11.0835536,15.4518376 11.1565051,15.4718227 C11.3732752,15.5312068 11.6118247,15.4904409 11.8044342,15.3521964 L17.7961703,11.0723287 C17.9868473,10.9365868 18.1116143,10.7204183 18.1419543,10.4843216 L18.1491234,10.3648926 Z M19.9803286,13.5383293 C19.9316004,13.3151053 19.8023346,13.1264136 19.6189612,13.0077922 L18.6441771,12.3799542 C18.371844,12.2086646 18.0186565,12.2180255 17.7545558,12.4074293 L14.2975206,14.8749695 C14.0644203,15.0398518 13.9272839,15.3159166 13.9313951,15.6070947 C13.9349296,15.900473 14.077585,16.1659353 14.3147066,16.3181461 L16.7280964,17.8753888 C16.7952816,17.9173757 16.868942,17.9517038 16.9460622,17.9728308 C17.2920607,18.067617 17.6666307,17.9084763 17.8557006,17.587685 L19.8726224,14.187969 C19.9669309,14.0326993 20.0091299,13.8525897 19.9983555,13.6727583 L19.9803286,13.5383293 Z M7.92036222,14.1301601 L5.25044546,12.0003569 C4.90507606,11.7241659 4.40713374,11.7999877 4.1414729,12.165825 C3.87315111,12.5332915 3.9373433,13.05552 4.28120499,13.3289398 L5.02037008,13.9181697 L4.13078343,15.1388758 L1.05153178,14.059501 C0.65675254,13.9206954 0.187673763,14.1506295 0.0440996269,14.5876427 C-0.0988978864,15.0224557 0.117010956,15.4942793 0.530549155,15.6382239 L4.19553946,16.9205083 L4.19553946,16.9205083 C4.5019357,17.0044454 4.83255514,16.8851436 5.03093584,16.614066 L6.26907473,14.9158164 L6.94903742,15.458172 C7.03187635,15.5256704 7.12731112,15.5706799 7.22319022,15.596946 C7.52333348,15.6791702 7.85789941,15.5703821 8.06067093,15.2910747 C8.30164158,14.962335 8.27496421,14.5087007 8.01544474,14.2199179 L7.92036222,14.1301601 Z" id="形状" fill="#5CBFE5" fill-rule="nonzero"></path>
            </g>
        </g>
    </g>
</svg>