<?xml version="1.0" encoding="UTF-8"?>
<svg width="44px" height="37px" viewBox="0 0 44 37" version="1.1" xmlns="http://www.w3.org/2000/svg" xmlns:xlink="http://www.w3.org/1999/xlink">
    <title>菜单_normal/实时客流</title>
    <defs>
        <radialGradient cx="19.0106617%" cy="6.10159164e-14%" fx="19.0106617%" fy="6.10159164e-14%" r="125.922591%" gradientTransform="translate(0.190107,0.000000),scale(0.833333,1.000000),rotate(52.573977),translate(-0.190107,-0.000000)" id="radialGradient-1">
            <stop stop-color="#18A098" offset="0%"></stop>
            <stop stop-color="#0A5D78" offset="100%"></stop>
        </radialGradient>
        <radialGradient cx="19.0106617%" cy="6.10159164e-14%" fx="19.0106617%" fy="6.10159164e-14%" r="125.922591%" gradientTransform="translate(0.190107,0.000000),scale(0.833333,1.000000),rotate(52.573977),translate(-0.190107,-0.000000)" id="radialGradient-2">
            <stop stop-color="#E3FFFD" offset="0%"></stop>
            <stop stop-color="#4DFDFF" offset="100%"></stop>
        </radialGradient>
        <linearGradient x1="8.98117323%" y1="15.2777778%" x2="97.3098129%" y2="82.6696958%" id="linearGradient-3">
            <stop stop-color="#F1FEFF" offset="0%"></stop>
            <stop stop-color="#66FFFE" stop-opacity="0" offset="100%"></stop>
        </linearGradient>
    </defs>
    <g id="首页" stroke="none" stroke-width="1" fill="none" fill-rule="evenodd">
        <g id="市县分大屏方案2" transform="translate(-1359.000000, -250.000000)">
            <g id="编组-32" transform="translate(171.000000, 202.995196)">
                <g id="实时客流_normal" transform="translate(889.336029, 0.000000)">
                    <g id="菜单_normal/实时客流" transform="translate(298.983985, 47.399345)">
                        <path d="M17.1139372,18.5050909 C25.3216548,18.5050909 32.0644547,24.1930073 32.5682964,32.8704656 C32.5875822,33.2154765 32.5682964,34.2853001 31.2813706,34.2853001 L2.95936104,34.2853001 C2.53025186,34.2853001 1.67886388,33.3281331 1.71542656,32.8704656 C2.37998329,24.4253615 9.02233628,18.5050909 17.1139372,18.5050909 Z M30.7188679,22.1241846 C36.6468425,22.1241846 42.4920489,26.7157699 42.8544613,33.2245884 C42.8693274,33.4834501 42.8544613,34.2857143 41.9235194,34.2857143 L35.3137112,34.2836434 L35.3052737,33.7352708 C35.7512579,29.8250095 33.8178559,25.0648535 30.9161457,22.1241846 L30.7188679,22.1241846 L30.7188679,22.1241846 Z M25.4506289,8.15600732 C25.4506289,12.6597867 21.9072636,16.3120146 17.5398321,16.3120146 C15.4404918,16.3111863 13.427134,15.4517654 11.9433323,13.9222034 C10.459386,12.3932173 9.62595235,10.3188328 9.62662445,8.15600732 C9.62662445,3.65222794 13.1699899,0 17.5398321,0 C21.9104779,0.00248507231 25.451834,3.65388465 25.4506289,8.15600732 Z M32.5707071,9.66196065 C33.9351779,9.66237531 35.2438001,10.2219308 36.2080904,11.216788 C37.1723807,12.2120595 37.7139905,13.5610396 37.7135889,14.9675905 C37.7123833,17.8966624 35.4077295,20.2703206 32.5662874,20.2690786 C29.7248454,20.2678356 27.4222005,17.8921064 27.4234054,14.9630345 C27.4246112,12.0343768 29.729265,9.6607186 32.5707071,9.66196065 Z" id="形状" fill="url(#radialGradient-1)"></path>
                        <path d="M30.436,24.445 L30.756507,24.4908997 C33.0736988,24.8554758 35.2857455,25.9263605 37.0288854,27.5208072 C39.0633868,29.3817616 40.4591991,31.9594636 40.6267359,34.9683604 L40.6267359,34.9683604 L34.1058614,35.483802 C34.5040304,31.8737872 32.9714731,27.5771436 30.5106326,24.5340303 L30.436,24.445 Z M15.3996515,20.7336624 C19.4412258,20.7336624 23.1182569,22.154827 25.8168666,24.6632805 C28.4153561,27.0786686 30.101699,30.5002461 30.3405266,34.6134546 C30.3480344,34.7477645 30.3717444,35.0690095 30.1701796,35.290608 C30.0533615,35.4190368 29.8551858,35.4853001 29.5670849,35.4853001 L29.5670849,35.4853001 L1.24507533,35.4853001 C1.118427,35.4853001 0.966318704,35.2739121 0.830267169,35.1191689 C0.685243476,34.9542209 0.502689836,34.7646915 0.513841602,34.6250964 C0.832293498,30.5782495 2.56694083,27.1287762 5.19201254,24.6798291 C7.86319426,22.1878656 11.4537926,20.7336624 15.3996515,20.7336624 Z M30.8562651,11.8905321 C32.0826534,11.8909048 33.2580883,12.3951136 34.1244465,13.2889345 C34.9966971,14.1892091 35.4853806,15.4097531 35.4850175,16.6816646 C35.4844724,18.0060101 34.9643124,19.2054475 34.1217676,20.0732307 C33.284787,20.9352829 32.1291958,21.4696368 30.8522267,21.4690786 C29.5752596,21.46852 28.4201239,20.933144 27.5838639,20.070353 C26.7420319,19.2018132 26.2228605,18.0018945 26.2234053,16.677532 C26.2239505,15.353368 26.7441285,14.1540252 27.5866858,13.286297 C28.4236657,12.4243129 29.5792437,11.8899738 30.8562651,11.8905321 Z M15.825254,2.22857135 C17.8668541,2.22973216 19.714029,3.08434149 21.0511619,4.46292149 C22.3937781,5.84715459 23.2226225,7.75925403 23.2220575,9.87029303 C23.2220575,11.981909 22.3925427,13.8945496 21.0498011,15.2789121 C19.7125097,16.6576555 17.8656594,17.5120146 15.8257493,17.5120147 C13.8644399,17.5112408 11.9841682,16.7071284 10.5980965,15.2783105 C9.20636946,13.8443426 8.42599419,11.898539 8.42662445,9.87029303 C8.42662445,7.75856291 9.25623228,5.84582933 10.5993931,4.46145656 C11.9369915,3.08281683 13.7843751,2.22857143 15.825254,2.22857135 Z" id="形状" stroke="url(#linearGradient-3)" stroke-width="1.02857143" fill="url(#radialGradient-2)"></path>
                    </g>
                </g>
            </g>
        </g>
    </g>
</svg>